<svg xmlns="http://www.w3.org/2000/svg" version="1.1" xmlns:xlink="http://www.w3.org/1999/xlink" xmlns:svgjs="http://svgjs.dev/svgjs" width="2000" height="1500" viewBox="0 0 2000 1500"><rect width="2000" height="1500" fill="#ffffff"></rect><g transform="matrix(0.75,0,0,0.75,250.15999999999997,516.9644927978516)"><svg viewBox="0 0 375 117" data-background-color="#051726" preserveAspectRatio="xMidYMid meet" height="624" width="2000" xmlns="http://www.w3.org/2000/svg" xmlns:xlink="http://www.w3.org/1999/xlink"><defs></defs><g id="tight-bounds" transform="matrix(1,0,0,1,-0.03976036071776434,-0.24112319946289062)"><svg viewBox="0 0 375.07952880859375 117.48192596435547" height="117.48192596435547" width="375.07952880859375"><g><svg></svg></g><g><svg viewBox="0 0 375.07952880859375 117.48192596435547" height="117.48192596435547" width="375.07952880859375"><g transform="matrix(1,0,0,1,-10.220239639282227,-68.89275360107422)"><path d="M10.22 178.307v-109.414h375.08v109.414l-132.567 0 0-3.47h129.096v-102.474h-368.138v102.474l24.675 0 0 3.47z" fill="#000000" data-fill-palette-color="tertiary"></path><path d="M53.343 182.112h-4.565v-0.89l1.666-0.134v-12.855l-1.666-0.134v-0.902h11.039v3.268h-1.045l-0.101-2.245h-6.998v5.862h6.075v1.036h-6.075v5.97l1.67 0.134zM65.942 182.112h-4.569v-0.89l1.67-0.134v-9.025l-1.67-0.134v-0.902h2.748l0.135 1.691 0.008 0.298c0.313-0.691 0.74-1.228 1.28-1.611 0.54-0.386 1.186-0.579 1.938-0.579v0c0.182 0 0.378 0.015 0.588 0.046 0.207 0.031 0.359 0.063 0.457 0.096v0l-0.155 1.125-1.137-0.072c-0.786-0.02-1.428 0.206-1.926 0.676-0.498 0.473-0.843 1.098-1.037 1.875v0 6.516l1.67 0.134zM74.774 182.326v0c-0.999 0-1.864-0.236-2.597-0.709-0.736-0.475-1.306-1.136-1.712-1.98-0.406-0.842-0.608-1.806-0.608-2.891v0-0.34c0-1.085 0.203-2.047 0.608-2.887 0.406-0.842 0.976-1.502 1.712-1.98 0.733-0.475 1.592-0.713 2.576-0.713v0c0.99 0 1.852 0.238 2.585 0.713 0.736 0.478 1.306 1.136 1.711 1.972 0.406 0.839 0.608 1.804 0.609 2.895v0 0.34c0 1.091-0.203 2.057-0.609 2.899-0.406 0.839-0.976 1.496-1.711 1.972-0.733 0.473-1.587 0.709-2.564 0.709zM74.774 181.302v0c0.758 0 1.41-0.201 1.955-0.604 0.545-0.403 0.965-0.95 1.259-1.64 0.294-0.688 0.441-1.459 0.44-2.312v0-0.34c0-0.848-0.147-1.615-0.44-2.303-0.294-0.691-0.715-1.238-1.263-1.641-0.551-0.403-1.208-0.604-1.972-0.604v0c-0.764 0-1.421 0.201-1.972 0.604-0.551 0.403-0.971 0.95-1.259 1.641-0.291 0.688-0.436 1.456-0.436 2.303v0 0.34c0 0.859 0.145 1.632 0.436 2.32 0.288 0.685 0.708 1.229 1.259 1.632 0.551 0.403 1.215 0.604 1.993 0.604zM86.01 182.112h-4.569v-0.89l1.67-0.134v-9.025l-1.67-0.134v-0.902h2.756l0.101 1.989c0.355-0.696 0.834-1.236 1.435-1.62 0.601-0.38 1.319-0.571 2.152-0.57v0c1.203 0 2.117 0.366 2.744 1.099 0.629 0.733 0.944 1.882 0.944 3.449v0 5.714l1.67 0.134v0.89h-4.569v-0.89l1.67-0.134v-5.706c0-1.284-0.236-2.189-0.709-2.714-0.47-0.526-1.143-0.789-2.018-0.789v0c-0.915 0-1.638 0.256-2.169 0.768-0.534 0.512-0.903 1.182-1.108 2.009v0 6.432l1.67 0.134zM98.895 182.305v0c-0.778 0-1.382-0.241-1.813-0.722-0.431-0.481-0.646-1.257-0.646-2.328v0-7.234h-1.913v-0.994h1.913v-2.844h1.229v2.844h2.585v0.994h-2.585v7.234c0 0.738 0.131 1.268 0.395 1.59 0.263 0.324 0.614 0.487 1.053 0.487v0c0.232 0 0.46-0.015 0.684-0.047 0.227-0.031 0.459-0.063 0.696-0.096v0l0.185 0.881c-0.246 0.076-0.526 0.134-0.839 0.176-0.313 0.039-0.628 0.059-0.944 0.059zM113.269 182.112h-11.022v-0.89l1.67-0.134v-12.855l-1.67-0.134v-0.902h10.711v3.268h-1.044l-0.101-2.253h-6.667v5.643h6.012v1.024h-6.012v6.239h6.986l0.1-2.274h1.037zM120.057 182.112h-4.569v-0.89l1.67-0.134v-9.025l-1.67-0.134v-0.902h2.757l0.105 1.989c0.355-0.696 0.832-1.236 1.43-1.62 0.601-0.38 1.319-0.571 2.153-0.57v0c1.203 0 2.117 0.366 2.744 1.099 0.629 0.733 0.944 1.882 0.944 3.449v0 5.714l1.67 0.134v0.89h-4.569v-0.89l1.669-0.134v-5.706c0-1.284-0.235-2.189-0.704-2.714-0.473-0.526-1.145-0.789-2.019-0.789v0c-0.917 0-1.642 0.256-2.173 0.768-0.531 0.512-0.901 1.182-1.108 2.009v0 6.432l1.67 0.134zM133.353 182.326v0c-0.881 0-1.639-0.225-2.274-0.676-0.635-0.45-1.119-1.082-1.452-1.896-0.336-0.811-0.503-1.771-0.503-2.878v0-0.214c0-1.18 0.168-2.208 0.503-3.084 0.333-0.873 0.818-1.55 1.456-2.031 0.641-0.481 1.404-0.722 2.291-0.721v0c0.772 0 1.443 0.164 2.014 0.491 0.571 0.327 1.041 0.785 1.41 1.372v0-5.522l-1.67-0.134v-0.902h1.67 1.229v14.957l1.666 0.134v0.89h-2.765l-0.092-1.569c-0.361 0.562-0.835 1-1.423 1.313-0.587 0.313-1.274 0.47-2.06 0.47zM133.58 181.273v0c0.8 0 1.466-0.182 1.997-0.546 0.531-0.361 0.938-0.852 1.221-1.472v0-5.173c-0.269-0.643-0.659-1.171-1.171-1.582-0.512-0.414-1.187-0.621-2.026-0.621v0c-0.719 0-1.316 0.201-1.792 0.604-0.478 0.403-0.839 0.962-1.082 1.678-0.243 0.719-0.365 1.552-0.365 2.501v0 0.214c0 1.34 0.269 2.407 0.805 3.201 0.537 0.797 1.341 1.196 2.413 1.196zM152.292 182.112h-5.815v-0.89l1.67-0.134v-12.855l-1.67-0.134v-0.902h1.67 4.095c1.27 0 2.387 0.316 3.352 0.948 0.962 0.632 1.717 1.499 2.266 2.601 0.551 1.105 0.827 2.366 0.826 3.784v0 0.248c0 1.413-0.27 2.671-0.809 3.776-0.54 1.102-1.289 1.971-2.249 2.606-0.959 0.635-2.071 0.952-3.336 0.952zM149.376 168.233v12.855h2.866c1.038 0 1.947-0.278 2.727-0.835 0.778-0.557 1.386-1.312 1.825-2.265 0.442-0.951 0.663-2.021 0.663-3.21v0-0.269c0-1.2-0.221-2.273-0.663-3.218-0.439-0.945-1.048-1.692-1.825-2.24-0.78-0.545-1.689-0.818-2.727-0.818v0zM165.538 182.326v0c-0.948 0-1.785-0.231-2.509-0.692-0.724-0.459-1.291-1.096-1.699-1.914-0.411-0.817-0.617-1.758-0.617-2.823v0-0.562c0-1.057 0.206-2.001 0.617-2.832 0.408-0.831 0.962-1.485 1.661-1.964 0.702-0.475 1.482-0.713 2.341-0.713v0c0.909 0 1.687 0.194 2.333 0.583 0.643 0.389 1.138 0.937 1.485 1.645 0.344 0.705 0.516 1.536 0.516 2.492v0 1.044h-7.682l-0.021 0.454c0.008 0.817 0.161 1.547 0.457 2.19 0.296 0.641 0.713 1.145 1.251 1.514 0.534 0.369 1.157 0.554 1.867 0.554v0c0.696 0 1.309-0.11 1.837-0.331 0.531-0.224 0.999-0.526 1.402-0.907v0l0.52 0.84c-0.431 0.408-0.951 0.748-1.561 1.019-0.613 0.269-1.345 0.403-2.198 0.403zM162.047 175.504l0.021 0.063h6.369v-0.306c0-0.649-0.124-1.232-0.374-1.75-0.249-0.515-0.604-0.919-1.065-1.213-0.462-0.294-1.017-0.441-1.666-0.44v0c-0.587 0-1.116 0.159-1.586 0.478-0.473 0.316-0.857 0.75-1.154 1.301-0.296 0.548-0.478 1.171-0.545 1.867zM177.155 182.112h-1.107l-4.024-10.111-1.179-0.072v-0.902h3.902v0.902l-1.456 0.092 2.87 7.313 0.411 1.221h0.059l0.44-1.221 2.778-7.313-1.477-0.092v-0.902h3.902v0.902l-1.196 0.072zM188.144 182.326v0c-0.948 0-1.785-0.231-2.509-0.692-0.724-0.459-1.291-1.096-1.7-1.914-0.411-0.817-0.617-1.758-0.616-2.823v0-0.562c0-1.057 0.206-2.001 0.616-2.832 0.408-0.831 0.964-1.485 1.666-1.964 0.699-0.475 1.478-0.713 2.337-0.713v0c0.909 0 1.687 0.194 2.333 0.583 0.646 0.389 1.141 0.937 1.485 1.645 0.344 0.705 0.516 1.536 0.516 2.492v0 1.044h-7.682l-0.021 0.454c0.008 0.817 0.161 1.547 0.457 2.19 0.296 0.641 0.713 1.145 1.251 1.514 0.534 0.369 1.157 0.554 1.867 0.554v0c0.696 0 1.31-0.11 1.842-0.331 0.529-0.224 0.994-0.526 1.397-0.907v0l0.52 0.84c-0.428 0.408-0.948 0.748-1.561 1.019-0.613 0.269-1.345 0.403-2.198 0.403zM184.653 175.504l0.021 0.063h6.369v-0.306c0-0.649-0.124-1.232-0.374-1.75-0.249-0.515-0.604-0.919-1.065-1.213-0.462-0.294-1.017-0.441-1.666-0.44v0c-0.585 0-1.113 0.159-1.586 0.478-0.47 0.316-0.855 0.75-1.154 1.301-0.296 0.548-0.478 1.171-0.545 1.867zM198.666 182.112h-4.569v-0.89l1.67-0.134v-13.921l-1.67-0.134v-0.902h2.899v14.957l1.67 0.134zM205.283 182.326v0c-0.999 0-1.864-0.236-2.597-0.709-0.736-0.475-1.306-1.136-1.712-1.98-0.406-0.842-0.608-1.806-0.608-2.891v0-0.34c0-1.085 0.203-2.047 0.608-2.887 0.406-0.842 0.976-1.502 1.712-1.98 0.733-0.475 1.592-0.713 2.576-0.713v0c0.99 0 1.852 0.238 2.584 0.713 0.736 0.478 1.306 1.136 1.712 1.972 0.406 0.839 0.608 1.804 0.608 2.895v0 0.34c0 1.091-0.203 2.057-0.608 2.899-0.406 0.839-0.976 1.496-1.712 1.972-0.733 0.473-1.587 0.709-2.563 0.709zM205.283 181.302v0c0.758 0 1.41-0.201 1.955-0.604 0.545-0.403 0.965-0.95 1.259-1.64 0.294-0.688 0.441-1.459 0.44-2.312v0-0.34c0-0.848-0.147-1.615-0.44-2.303-0.294-0.691-0.715-1.238-1.263-1.641-0.551-0.403-1.208-0.604-1.972-0.604v0c-0.766 0-1.424 0.201-1.972 0.604-0.551 0.403-0.971 0.95-1.259 1.641-0.291 0.688-0.436 1.456-0.436 2.303v0 0.34c0 0.859 0.145 1.632 0.436 2.32 0.288 0.685 0.708 1.229 1.259 1.632 0.548 0.403 1.213 0.604 1.993 0.604zM216.242 186.375h-4.569v-0.902l1.628-0.135v-13.275l-1.67-0.134v-0.902h2.698l0.151 1.691c0.369-0.601 0.846-1.067 1.43-1.397 0.582-0.33 1.27-0.495 2.064-0.495v0c0.887 0 1.649 0.241 2.287 0.721 0.641 0.481 1.129 1.158 1.464 2.031 0.338 0.875 0.508 1.903 0.508 3.084v0 0.214c0 1.108-0.169 2.067-0.508 2.878-0.336 0.814-0.82 1.446-1.451 1.896-0.632 0.45-1.389 0.675-2.27 0.676v0c-0.786 0-1.47-0.147-2.052-0.441-0.585-0.294-1.059-0.703-1.422-1.229v0 4.682l1.712 0.135zM217.719 181.302v0c1.071 0 1.885-0.403 2.441-1.208 0.557-0.806 0.835-1.878 0.835-3.218v0-0.214c0-0.943-0.126-1.772-0.377-2.488-0.255-0.716-0.625-1.278-1.112-1.687-0.489-0.406-1.092-0.608-1.808-0.608v0c-0.842 0-1.516 0.206-2.023 0.617-0.509 0.408-0.891 0.927-1.145 1.556v0 5.282c0.26 0.61 0.657 1.089 1.191 1.44 0.531 0.352 1.197 0.529 1.998 0.528zM229.147 182.326v0c-0.948 0-1.785-0.231-2.509-0.692-0.724-0.459-1.291-1.096-1.699-1.914-0.411-0.817-0.617-1.758-0.617-2.823v0-0.562c0-1.057 0.206-2.001 0.617-2.832 0.408-0.831 0.964-1.485 1.666-1.964 0.699-0.475 1.478-0.713 2.337-0.713v0c0.909 0 1.687 0.194 2.333 0.583 0.646 0.389 1.141 0.937 1.485 1.645 0.344 0.705 0.516 1.536 0.516 2.492v0 1.044h-7.682l-0.021 0.454c0.008 0.817 0.161 1.547 0.457 2.19 0.296 0.641 0.713 1.145 1.25 1.514 0.534 0.369 1.157 0.554 1.867 0.554v0c0.696 0 1.31-0.11 1.842-0.331 0.529-0.224 0.994-0.526 1.397-0.907v0l0.521 0.84c-0.431 0.408-0.951 0.748-1.561 1.019-0.613 0.269-1.345 0.403-2.199 0.403zM225.657 175.504l0.021 0.063h6.369v-0.306c0-0.649-0.124-1.232-0.374-1.75-0.249-0.515-0.604-0.919-1.066-1.213-0.462-0.294-1.017-0.441-1.665-0.44v0c-0.587 0-1.116 0.159-1.586 0.478-0.47 0.316-0.855 0.75-1.154 1.301-0.296 0.548-0.478 1.171-0.545 1.867zM239.741 182.112h-4.569v-0.89l1.67-0.134v-9.025l-1.67-0.134v-0.902h2.744l0.134 1.691 0.009 0.298c0.316-0.691 0.743-1.228 1.28-1.611 0.54-0.386 1.186-0.579 1.938-0.579v0c0.185 0 0.38 0.015 0.587 0.046 0.21 0.031 0.362 0.063 0.458 0.096v0l-0.156 1.125-1.137-0.072c-0.783-0.02-1.425 0.206-1.925 0.676-0.498 0.473-0.842 1.098-1.033 1.875v0 6.516l1.67 0.134z" fill="#000000" data-fill-palette-color="secondary"></path></g><g transform="matrix(1,0,0,1,29.331764404296905,37.81607024435273)"><svg viewBox="0 0 316.41599999999994 41.849785475650016" height="41.849785475650016" width="316.41599999999994"><g><svg viewBox="0 0 396.6504965192863 52.461753476885484" height="41.849785475650016" width="316.41599999999994"><g><rect width="4.350637423829554" height="52.461753476885484" x="64.49475589171448" y="0" fill="#000000" opacity="1" stroke-width="0" stroke="transparent" fill-opacity="1" class="rect-o-0" data-fill-palette-color="primary" rx="1%" id="o-0" data-palette-color="#ff0000"></rect></g><g transform="matrix(1,0,0,1,80.23449651928632,0.13050187432060767)"><svg viewBox="0 0 316.416 52.20074972824427" height="52.20074972824427" width="316.416"><g><svg viewBox="0 0 316.416 52.20074972824427" height="52.20074972824427" width="316.416"><g><svg viewBox="0 0 316.416 52.20074972824427" height="52.20074972824427" width="316.416"><g transform="matrix(1,0,0,1,0,0)"><svg width="316.416" viewBox="2.809999942779541 -36.060001373291016 239.8699951171875 36.57000732421875" height="52.20074972824427" data-palette-color="#ff0000"><svg></svg><g class="undefined-text-0" data-fill-palette-color="primary" id="text-0"><path d="M14.79 0.51v0c-2.16 0-4.243-0.317-6.25-0.95-2-0.633-3.91-1.61-5.73-2.93v0-7.59h3.73l0.81 5.59c1.06 0.653 2.207 1.157 3.44 1.51 1.24 0.36 2.573 0.54 4 0.54v0c1.633 0 3.013-0.247 4.14-0.74 1.133-0.5 2-1.19 2.6-2.07 0.607-0.88 0.91-1.903 0.91-3.07v0c0-1.093-0.26-2.053-0.78-2.88-0.527-0.833-1.387-1.563-2.58-2.19-1.193-0.627-2.827-1.177-4.9-1.65v0c-2.44-0.567-4.5-1.327-6.18-2.28-1.687-0.953-2.967-2.11-3.84-3.47-0.867-1.36-1.3-2.917-1.3-4.67v0c0-1.86 0.49-3.52 1.47-4.98 0.987-1.467 2.36-2.623 4.12-3.47 1.753-0.847 3.803-1.27 6.15-1.27v0c2.487 0 4.687 0.38 6.6 1.14 1.913 0.753 3.49 1.667 4.73 2.74v0 7.11h-3.74l-0.8-5.08c-0.733-0.587-1.647-1.077-2.74-1.47-1.087-0.387-2.437-0.58-4.05-0.58v0c-1.367 0-2.57 0.24-3.61 0.72-1.047 0.48-1.863 1.15-2.45 2.01-0.58 0.867-0.87 1.883-0.87 3.05v0c0 1.027 0.263 1.923 0.79 2.69 0.527 0.767 1.39 1.437 2.59 2.01 1.193 0.58 2.79 1.123 4.79 1.63v0c3.747 0.927 6.583 2.297 8.51 4.11 1.933 1.813 2.9 4.057 2.9 6.73v0c0 1.9-0.513 3.587-1.54 5.06-1.027 1.473-2.473 2.627-4.34 3.46-1.86 0.827-4.053 1.24-6.58 1.24zM45.92 0.51v0c-2.293 0-4.35-0.44-6.17-1.32-1.827-0.873-3.377-2.113-4.65-3.72-1.28-1.6-2.257-3.5-2.93-5.7-0.68-2.2-1.02-4.623-1.02-7.27v0-0.52c0-2.633 0.34-5.053 1.02-7.26 0.673-2.207 1.65-4.117 2.93-5.73 1.273-1.607 2.823-2.85 4.65-3.73 1.82-0.88 3.877-1.32 6.17-1.32v0c2.427 0 4.56 0.44 6.4 1.32 1.84 0.88 3.383 2.123 4.63 3.73 1.24 1.613 2.18 3.523 2.82 5.73 0.633 2.207 0.95 4.627 0.95 7.26v0 0.52c0 2.647-0.317 5.07-0.95 7.27-0.64 2.2-1.58 4.1-2.82 5.7-1.247 1.607-2.79 2.847-4.63 3.72-1.84 0.88-3.973 1.32-6.4 1.32zM45.92-3.49v0c2.36 0 4.27-0.587 5.73-1.76 1.453-1.173 2.523-2.813 3.21-4.92 0.68-2.107 1.02-4.55 1.02-7.33v0-0.57c0-2.767-0.343-5.193-1.03-7.28-0.693-2.093-1.773-3.73-3.24-4.91-1.467-1.18-3.363-1.77-5.69-1.77v0c-2.133 0-3.94 0.593-5.42 1.78-1.48 1.187-2.603 2.827-3.37 4.92-0.76 2.093-1.14 4.513-1.14 7.26v0 0.57c0 2.767 0.38 5.203 1.14 7.31 0.767 2.107 1.89 3.75 3.37 4.93 1.48 1.18 3.287 1.77 5.42 1.77zM80.86 0.51v0c-2.44 0-4.62-0.48-6.54-1.44-1.92-0.96-3.433-2.33-4.54-4.11-1.107-1.78-1.66-3.917-1.66-6.41v0-20.31l-3.98-0.69v-3.1h12.76v3.1l-3.98 0.69v20.31c0 1.773 0.34 3.263 1.02 4.47 0.673 1.2 1.613 2.107 2.82 2.72 1.2 0.613 2.59 0.92 4.17 0.92v0c1.6 0 3.013-0.303 4.24-0.91 1.227-0.6 2.187-1.503 2.88-2.71 0.693-1.2 1.04-2.697 1.04-4.49v0-20.31l-3.98-0.69v-3.1h12.77v3.1l-3.98 0.69v20.31c0 2.573-0.543 4.75-1.63 6.53-1.08 1.78-2.597 3.13-4.55 4.05-1.953 0.92-4.24 1.38-6.86 1.38zM111.87 0.51v0c-1.973 0-3.76-0.39-5.36-1.17-1.607-0.78-2.893-1.96-3.86-3.54-0.967-1.58-1.5-3.557-1.6-5.93v0l0.05-0.15h4.61c0.067 2.393 0.617 4.153 1.65 5.28 1.033 1.12 2.51 1.68 4.43 1.68v0c1.353 0 2.46-0.29 3.32-0.87 0.867-0.573 1.507-1.37 1.92-2.39 0.413-1.02 0.62-2.187 0.62-3.5v0-21.68l-4.73-0.64v-3.15h13.52v3.1l-3.98 0.69v21.68c0 2.113-0.403 3.967-1.21 5.56-0.807 1.6-1.993 2.837-3.56 3.71-1.573 0.88-3.513 1.32-5.82 1.32zM142.87 0h-12.77v-3.08l3.98-0.68v-28l-3.98-0.69v-3.1h12.77v3.1l-3.98 0.69v28l3.98 0.68zM162.87 0.51v0c-3.293 0-6.143-0.76-8.55-2.28-2.407-1.52-4.263-3.633-5.57-6.34-1.3-2.7-1.95-5.823-1.95-9.37v0-0.59c0-3.58 0.657-6.717 1.97-9.41 1.307-2.693 3.1-4.797 5.38-6.31 2.28-1.513 4.867-2.27 7.76-2.27v0c2.767 0 5.117 0.317 7.05 0.95 1.927 0.633 3.573 1.49 4.94 2.57v0 7.17h-3.95l-0.52-5.15c-0.793-0.52-1.77-0.913-2.93-1.18-1.153-0.267-2.52-0.4-4.1-0.4v0c-2.033 0-3.863 0.583-5.49 1.75-1.627 1.173-2.913 2.807-3.86 4.9-0.94 2.093-1.41 4.537-1.41 7.33v0 0.64c0 2.833 0.433 5.303 1.3 7.41 0.873 2.107 2.147 3.743 3.82 4.91 1.68 1.16 3.717 1.74 6.11 1.74v0c1.627 0 3-0.143 4.12-0.43 1.127-0.28 2.12-0.65 2.98-1.11v0-8.35l-6.81-0.24v-3.54h11.62v13.77c-1.027 0.96-2.497 1.84-4.41 2.64-1.913 0.793-4.413 1.19-7.5 1.19zM194.8 0.51v0c-2.293 0-4.353-0.44-6.18-1.32-1.82-0.873-3.37-2.113-4.65-3.72-1.273-1.6-2.25-3.5-2.93-5.7-0.673-2.2-1.01-4.623-1.01-7.27v0-0.52c0-2.633 0.337-5.053 1.01-7.26 0.68-2.207 1.657-4.117 2.93-5.73 1.28-1.607 2.83-2.85 4.65-3.73 1.827-0.88 3.887-1.32 6.18-1.32v0c2.427 0 4.56 0.44 6.4 1.32 1.84 0.88 3.38 2.123 4.62 3.73 1.247 1.613 2.187 3.523 2.82 5.73 0.633 2.207 0.95 4.627 0.95 7.26v0 0.52c0 2.647-0.317 5.07-0.95 7.27-0.633 2.2-1.573 4.1-2.82 5.7-1.24 1.607-2.78 2.847-4.62 3.72-1.84 0.88-3.973 1.32-6.4 1.32zM194.8-3.49v0c2.36 0 4.267-0.587 5.72-1.76 1.46-1.173 2.533-2.813 3.22-4.92 0.68-2.107 1.02-4.55 1.02-7.33v0-0.57c0-2.767-0.347-5.193-1.04-7.28-0.687-2.093-1.763-3.73-3.23-4.91-1.467-1.18-3.363-1.77-5.69-1.77v0c-2.133 0-3.94 0.593-5.42 1.78-1.48 1.187-2.603 2.827-3.37 4.92-0.767 2.093-1.15 4.513-1.15 7.26v0 0.57c0 2.767 0.383 5.203 1.15 7.31 0.767 2.107 1.89 3.75 3.37 4.93 1.48 1.18 3.287 1.77 5.42 1.77zM226.05 0h-12.77v-3.08l3.98-0.68v-28l-3.98-0.69v-3.07h15.85c2.587 0 4.77 0.387 6.55 1.16 1.78 0.773 3.137 1.89 4.07 3.35 0.927 1.467 1.39 3.26 1.39 5.38v0c0 2.08-0.453 3.827-1.36 5.24-0.9 1.42-2.18 2.49-3.84 3.21-1.66 0.727-3.63 1.113-5.91 1.16v0l-7.96 0.15v12.11l3.98 0.68zM242.68 0h-5.94l-7.91-17.75 4.81-0.05 6.57 14.21 2.47 0.44zM222.07-31.76v12.11h6.57c2.687 0 4.64-0.513 5.86-1.54 1.22-1.027 1.83-2.523 1.83-4.49v0c0-1.873-0.587-3.357-1.76-4.45-1.173-1.087-2.987-1.63-5.44-1.63v0z" data-fill-palette-color="primary" fill="#000000" opacity="1"></path></g></svg></g></svg></g></svg></g></svg></g><g transform="matrix(1,0,0,1,0,0.13050187432060767)"><svg viewBox="0 0 53.10565268797218 52.20074972824427" height="52.20074972824427" width="53.10565268797218"><g><svg xmlns="http://www.w3.org/2000/svg" viewBox="-345.9993896484375 257.947998046875 99.75177001953125 98.05203247070312" xml:space="preserve" width="53.10565268797218" height="52.20074972824427" x="0" y="0" class="icon-icon-0" data-fill-palette-color="accent" id="icon-0"><path d="M-246.455 327.152l-16.86-64.454s-1.243-4.756-6.002-4.75l-72.96 0.08s-4.759 0.004-3.515 4.761l15.835 60.538c7.148-15.684 15.203-33.301 15.795-34.599l0.423-0.924 21.84-0.021-1.048 2.253c-5.985 12.87-13.768 29.775-19.236 41.944l62.212-0.067c0.001-0.001 4.76-0.007 3.516-4.761z" fill="#000000" data-fill-palette-color="accent"></path><path d="M-296.864 290.954l-14.839 0.015c-9.094 19.892-25.758 56.396-26.425 58.074-1.594 4.007 0.346 6.235 1.171 6.957h56.176l-1.875-4.804h-35.137c-0.044 0.002-0.107 0.005-0.184 0.005-1.988 0-3.998-1.204-4.006-3.894-0.002-0.629-0.004-1.579 13.149-30.369a5464.845 5464.845 0 0 1 11.97-25.984z" fill="#000000" data-fill-palette-color="accent"></path></svg></g></svg></g></svg></g></svg></g></svg></g></svg><rect width="375.07952880859375" height="117.48192596435547" fill="none" stroke="none" visibility="hidden"></rect></g></svg></g></svg>